# Blender 3.1.0
# www.blender.org
mtllib torso_fixed_link.mtl
g torso_fixed_link_torso fixed link.002_Material_001.033
v -0.148316 0.123305 -0.018569
v -0.159329 0.099519 0.443306
v -0.148316 0.123305 0.443306
v -0.117466 -0.155350 -0.018569
v -0.125949 -0.150084 -0.018569
v -0.035066 -0.155350 -0.018569
v -0.127432 -0.152834 -0.018569
v -0.164945 -0.073882 -0.018569
v -0.164945 0.073882 -0.018569
v -0.035065 0.152225 -0.018569
v -0.033566 -0.155350 -0.018167
v -0.135010 0.145890 0.443306
v -0.135011 0.145890 -0.018569
v -0.035065 0.155350 -0.018569
v -0.125949 0.150084 -0.018569
v -0.117465 0.155350 -0.018569
v -0.117465 -0.155350 0.443306
v -0.127432 -0.152834 0.443306
v -0.159330 -0.099519 -0.018569
v -0.168288 -0.072369 -0.018569
v -0.159330 0.099519 -0.018569
v -0.168288 0.072368 -0.018569
v -0.032467 0.152225 -0.017069
v -0.032467 -0.155350 -0.017069
v -0.148316 -0.123305 -0.018569
v -0.135010 -0.145890 0.443306
v -0.148316 -0.123305 0.443306
v -0.127432 0.152834 0.443306
v -0.117465 0.155350 0.443306
v -0.032467 0.152225 0.441806
v -0.032065 -0.155350 0.440306
v -0.032065 0.152225 0.440306
v -0.156432 0.098347 0.443306
v -0.159329 -0.099519 0.443306
v -0.167944 -0.074762 -0.018569
v -0.167943 -0.074762 0.443306
v -0.145549 -0.121854 -0.018569
v -0.167944 0.074762 -0.018569
v -0.145549 0.121854 -0.018569
v -0.033565 0.152225 -0.018167
v -0.127432 0.152834 -0.018569
v -0.035065 -0.155350 0.443306
v -0.035065 0.152225 0.443306
v -0.156432 -0.098347 0.443306
v -0.135011 -0.145890 -0.018569
v -0.167943 0.074762 0.443306
v -0.032065 0.152225 -0.015569
v -0.032066 -0.155350 -0.015569
v -0.033565 -0.155350 0.442904
v -0.033565 0.152225 0.442904
v -0.032467 -0.155350 0.441806
v -0.168287 0.072368 0.443306
v -0.168287 -0.072369 0.443306
v -0.035065 0.155350 0.443306
v -0.033565 0.155350 0.442904
v -0.032467 0.155350 0.441806
v -0.032065 0.155350 0.440306
v -0.032467 0.155350 -0.017069
v -0.032065 0.155350 -0.015569
v -0.033565 0.155350 -0.018167
vn -0.9074 0.4202 -0.0000
vn -0.0000 -0.0000 -1.0000
vn 0.2588 -0.0000 -0.9659
vn -0.0000 -0.0000 1.0000
vn -0.8616 0.5076 -0.0000
vn -0.2447 -0.9696 -0.0000
vn 0.7071 -0.0000 -0.7071
vn -0.8616 -0.5076 -0.0000
vn 0.9659 -0.0000 0.2588
vn -0.9074 -0.4202 -0.0000
vn -0.9445 -0.3286 -0.0000
vn -0.9445 0.3286 -0.0000
vn -0.2447 0.9696 -0.0000
vn -0.6756 -0.7373 -0.0000
vn 0.9659 -0.0000 -0.2588
vn 0.2588 -0.0000 0.9659
vn 0.7071 -0.0000 0.7071
vn -1.0000 -0.0000 -0.0000
vn -0.0000 1.0000 -0.0000
vn -0.9898 -0.1422 -0.0000
vn -0.9898 -0.1423 -0.0000
vn 1.0000 -0.0000 -0.0000
vn -0.6756 0.7373 -0.0000
vn 0.0002 -0.0000 1.0000
vn -0.9898 0.1422 -0.0000
vn -0.9898 0.1423 -0.0000
vn -0.0000 -1.0000 -0.0000
vt 0.143172 0.958360
vt 0.411945 0.000000
vt 0.441345 0.600169
vt 0.178905 0.927452
vt 0.192504 0.958360
vt 0.411945 0.600169
vt 0.105062 0.596271
vt 0.977765 0.600169
vt 0.115542 0.603114
vt 0.003272 0.596271
vt 0.876041 0.600169
vt 0.117374 0.599540
vt 0.990222 0.600169
vt 0.163715 0.702132
vt 0.163715 0.894139
vt 0.003272 0.995939
vt 0.001402 0.596271
vt 0.874189 0.599647
vt 0.384030 0.600169
vt 0.208933 0.987707
vt 0.744674 0.000000
vt 0.384030 0.000000
vt 0.126736 0.987707
vt 0.744674 0.600169
vt 0.868634 0.600169
vt 0.003272 1.000000
vt 0.115542 0.993157
vt 0.105062 1.000000
vt 0.766909 0.600169
vt 0.230596 0.596271
vt 0.977765 0.000000
vt 0.218290 0.599540
vt 0.990222 0.000000
vt 0.687359 0.000000
vt 0.156778 0.668819
vt 0.167844 0.704098
vt 0.653800 0.000000
vt 0.441345 0.000000
vt 0.156778 0.927452
vt 0.167844 0.892172
vt 0.474903 0.000000
vt 0.000000 0.995939
vt 0.003863 0.596271
vt 0.000000 0.596271
vt 0.384030 0.596271
vt 0.872833 0.598220
vt 0.716759 0.000000
vt 0.143172 0.637910
vt 0.208933 0.608563
vt 0.744674 0.600169
vt 1.000000 0.000000
vt 0.192504 0.637910
vt 0.716759 0.600169
vt 0.218290 0.996731
vt 0.754452 0.000000
vt 0.230596 1.000000
vt 0.766909 0.000000
vt 0.335632 0.995939
vt 0.003863 0.000000
vt 0.384030 0.001949
vt 0.872337 0.003898
vt 0.003863 0.001949
vt 0.182482 0.925930
vt 0.687359 0.600169
vt 0.178905 0.668819
vt 0.167419 0.700988
vt 0.656759 0.000000
vt 0.656759 0.600169
vt 0.168268 0.700988
vt 0.139754 0.639796
vt 0.167419 0.895282
vt 0.471945 0.000000
vt 0.139754 0.956474
vt 0.001402 0.995939
vt 0.117374 0.996731
vt 0.754452 0.600169
vt 0.332340 0.596271
vt 0.876041 0.000000
vt 0.332340 0.995939
vt 0.182482 0.670341
vt 0.744674 0.000000
vt 0.126736 0.608563
vt 1.000000 0.600169
vt 0.168268 0.895282
vt 0.471945 0.600169
vt 0.003863 0.594321
vt 0.384030 0.594321
vt 0.872337 0.596271
vt 0.334214 0.596271
vt 0.874189 0.000522
vt 0.334215 0.995939
vt 0.384030 0.000000
vt 0.335632 0.596271
vt 0.872833 0.001949
vt 0.167844 0.892172
vt 0.474903 0.600169
vt 0.653800 0.600169
vt 0.167844 0.704098
vt 0.332340 1.000000
vt 0.868633 0.000000
vt 0.334215 1.000000
vt 0.870485 0.000522
vt 0.335632 1.000000
vt 0.871841 0.001949
vt 0.000000 0.000000
vt 0.872337 0.003898
vt 0.000000 0.001949
vt 0.871841 0.598220
vt 0.000000 1.000000
vt 0.000000 0.596271
vt 0.872337 0.596271
vt 0.000000 0.594321
vt 0.870485 0.599647
vt 0.001402 1.000000
s 0
g off
g torso_fixed_link_torso fixed link.002_Material_001.033
usemtl Material_001.033
f 1/2/1 2/3/1 3/6/1
f 4/7/2 5/9/2 6/10/2
f 7/12/2 5/9/2 4/7/2
f 8/14/2 9/15/2 6/10/2
f 10/16/3 11/17/3 6/10/3
f 2/4/4 12/20/4 3/5/4
f 3/6/5 12/19/5 1/2/5
f 12/19/5 13/22/5 1/2/5
f 14/26/2 15/27/2 16/28/2
f 7/13/6 17/31/6 18/33/6
f 4/8/6 17/31/6 7/13/6
f 8/14/2 19/35/2 20/36/2
f 13/23/2 21/39/2 1/1/2
f 22/40/2 21/39/2 9/15/2
f 1/2/1 21/38/1 2/3/1
f 11/17/7 23/42/7 24/44/7
f 25/47/8 26/50/8 27/53/8
f 2/4/4 28/54/4 12/20/4
f 29/56/4 28/54/4 2/4/4
f 30/59/9 31/60/9 32/62/9
f 29/56/4 2/4/4 33/63/4
f 17/30/4 34/65/4 18/32/4
f 34/65/4 26/49/4 18/32/4
f 26/49/4 34/65/4 27/52/4
f 27/53/10 34/64/10 25/47/10
f 25/47/10 34/64/10 19/34/10
f 19/35/2 35/66/2 20/36/2
f 36/68/11 35/67/11 34/64/11
f 34/64/11 35/67/11 19/34/11
f 37/70/2 19/35/2 8/14/2
f 37/70/2 8/14/2 6/10/2
f 5/9/2 37/70/2 6/10/2
f 21/38/12 38/72/12 2/3/12
f 21/39/2 22/40/2 38/71/2
f 15/27/2 39/73/2 13/23/2
f 39/73/2 21/39/2 13/23/2
f 21/39/2 39/73/2 9/15/2
f 9/15/2 39/73/2 14/26/2
f 15/27/2 14/26/2 39/73/2
f 23/42/7 11/17/7 40/74/7
f 11/17/3 10/16/3 40/74/3
f 29/57/13 16/29/13 41/76/13
f 41/76/13 28/55/13 29/57/13
f 15/27/2 41/75/2 16/28/2
f 15/27/2 13/23/2 41/75/2
f 17/30/4 42/77/4 43/79/4
f 34/65/4 17/30/4 44/80/4
f 29/56/4 44/80/4 17/30/4
f 33/63/4 44/80/4 29/56/4
f 5/9/2 7/12/2 45/82/2
f 37/70/2 5/9/2 45/82/2
f 26/50/8 25/47/8 45/81/8
f 19/35/2 45/82/2 25/48/2
f 37/70/2 45/82/2 19/35/2
f 18/33/14 45/83/14 7/13/14
f 26/51/14 45/83/14 18/33/14
f 38/72/12 46/85/12 2/3/12
f 47/86/15 48/87/15 23/43/15
f 23/43/15 48/87/15 24/45/15
f 43/79/16 49/89/16 50/91/16
f 42/77/16 49/89/16 43/79/16
f 49/89/17 30/58/17 50/91/17
f 31/60/9 30/59/9 51/92/9
f 49/89/17 51/93/17 30/58/17
f 9/15/2 14/26/2 10/16/2
f 9/15/2 10/16/2 6/10/2
f 52/96/18 22/41/18 53/97/18
f 53/97/18 22/41/18 20/37/18
f 8/14/2 20/36/2 22/40/2
f 22/40/2 9/15/2 8/14/2
f 29/56/4 43/79/4 54/99/4
f 17/30/4 43/79/4 29/56/4
f 43/79/16 55/101/16 54/99/16
f 55/101/16 43/79/16 50/91/16
f 55/101/17 30/58/17 56/103/17
f 55/101/17 50/91/17 30/58/17
f 14/25/19 16/29/19 57/106/19
f 29/57/19 57/106/19 16/29/19
f 58/108/19 57/106/19 59/111/19
f 14/25/19 57/106/19 60/113/19
f 58/108/19 60/113/19 57/106/19
f 57/106/19 29/57/19 54/100/19
f 55/102/19 56/104/19 57/106/19
f 55/102/19 57/106/19 54/100/19
f 30/59/9 57/107/9 56/105/9
f 30/59/9 32/62/9 57/107/9
f 53/97/20 35/67/20 36/68/20
f 53/97/21 20/37/21 35/67/21
f 58/109/7 40/74/7 60/114/7
f 23/42/7 40/74/7 58/109/7
f 60/114/3 40/74/3 14/26/3
f 14/26/3 40/74/3 10/16/3
f 59/112/15 47/86/15 58/110/15
f 58/110/15 47/86/15 23/43/15
f 57/107/22 47/86/22 59/112/22
f 47/86/22 57/107/22 32/62/22
f 12/21/23 41/76/23 13/24/23
f 28/55/23 41/76/23 12/21/23
f 53/98/24 46/84/24 52/95/24
f 44/80/4 46/84/4 34/65/4
f 36/69/4 46/84/4 53/98/4
f 33/63/4 2/4/4 46/84/4
f 34/65/4 46/84/4 36/69/4
f 46/84/4 44/80/4 33/63/4
f 22/41/25 52/96/25 46/85/25
f 38/72/26 22/41/26 46/85/26
f 32/62/22 48/87/22 47/86/22
f 31/60/22 48/87/22 32/62/22
f 11/18/27 24/46/27 51/94/27
f 4/8/27 6/11/27 51/94/27
f 11/18/27 51/94/27 6/11/27
f 17/31/27 4/8/27 51/94/27
f 48/88/27 51/94/27 24/46/27
f 42/78/27 17/31/27 51/94/27
f 51/94/27 48/88/27 31/61/27
f 49/90/27 42/78/27 51/94/27
